<svg id="Capa_1" enable-background="new 0 0 512.015 512.015" height="512" viewBox="0 0 512.015 512.015" width="512" xmlns="http://www.w3.org/2000/svg"><g><path d="m136.01 119h9v129c0 8.284 6.716 15 15 15h192c8.284 0 15-6.716 15-15v-129h9c6.486 0 12.237-4.169 14.255-10.333s-.154-12.928-5.385-16.763l-41.87-30.704v-29.2c0-8.284-6.716-15-15-15s-15 6.716-15 15v7.2l-48.13-36.295c-5.28-3.873-12.461-3.873-17.741 0l-120 89c-5.23 3.835-7.403 10.599-5.385 16.763s7.769 10.332 14.256 10.332zm103 114v-50h34v50zm98 0h-34v-65c0-8.284-6.716-15-15-15h-64c-8.284 0-15 6.716-15 15v65h-34v-114h162zm-81-199.398 74.18 55.398h-148.36z"/><path d="m487.483 301.792c-15.453-11.545-34.897-15.098-53.427-9.779l-171.957 39.128c-3.935-3.573-8.453-6.574-13.457-8.826l-88.298-39.613c-25.683-11.557-55.078-11.415-80.576.352l-70.97 32.294c-7.541 3.432-10.872 12.325-7.44 19.866 3.431 7.54 12.325 10.87 19.865 7.44l71.043-32.328c17.683-8.159 38.009-8.257 55.783-.26l88.298 39.613c7.672 3.453 12.663 11.134 12.663 19.585 0 15.486-15.949 26.041-30.29 19.586l-76.349-34.357c-7.557-3.401-16.435-.032-19.834 7.523-3.4 7.555-.031 16.435 7.523 19.834l76.349 34.357c38.366 17.266 80.453-16.476 71.419-57.879 112.515-25.602 163.526-37.192 164.245-37.403 20.061-5.934 39.937 9.119 39.937 29.806 0 10.932-5.842 21.183-15.212 26.734l-161.604 95.18c-17.047 10.102-37.548 12.138-56.249 5.587l-123.98-43.39c-3.341-1.169-6.988-1.118-10.295.141l-105 40c-7.742 2.949-11.626 11.616-8.677 19.357s11.616 11.624 19.357 8.678l99.878-38.049 118.803 41.577c26.49 9.281 56.236 6.85 81.421-8.071l161.603-95.18c37.448-22.183 40.379-75.392 5.428-101.503z"/></g></svg>